<?xml version="1.0" encoding="UTF-8" standalone="no"?>
<svg width="16px" height="15px" viewBox="0 0 16 15" version="1.1" xmlns="http://www.w3.org/2000/svg" xmlns:xlink="http://www.w3.org/1999/xlink">
    <!-- Generator: Sketch 39.1 (31720) - http://www.bohemiancoding.com/sketch -->
    <title>heart-red</title>
    <desc>Created with Sketch.</desc>
    <defs></defs>
    <g id="Page-1" stroke="none" stroke-width="1" fill="none" fill-rule="evenodd">
        <g id="Snippet-Styles" transform="translate(-1033.000000, -742.000000)" fill="#F24242">
            <g id="like" transform="translate(931.000000, 742.000000)">
                <g id="heart-red" transform="translate(102.000000, 0.000000)">
                    <g id="Layer_1">
                        <path d="M8,15 L1.6,8.6 C0.6,7.5 0,6.2 0,4.8 C0,3.5 0.5,2.2 1.5,1.2 C2.3,0.4 3.3,0 4.5,0 C5.7,0 6.9,0.5 8,1.3 C9.1,0.5 10.3,0 11.5,0 C12.7,0 13.7,0.4 14.5,1.2 C15.5,2.2 16,3.4 16,4.8 C16,6.2 15.4,7.5 14.4,8.6 L8,15 L8,15 Z" id="Shape"></path>
                    </g>
                </g>
            </g>
        </g>
    </g>
</svg>