<?xml version="1.0" encoding="UTF-8" standalone="no"?>
<svg width="16px" height="15px" viewBox="0 0 16 15" version="1.1" xmlns="http://www.w3.org/2000/svg" xmlns:xlink="http://www.w3.org/1999/xlink">
    <!-- Generator: Sketch 39.1 (31720) - http://www.bohemiancoding.com/sketch -->
    <title>heart</title>
    <desc>Created with Sketch.</desc>
    <defs></defs>
    <g id="Page-1" stroke="none" stroke-width="1" fill="none" fill-rule="evenodd" opacity="0.329999983">
        <g id="Snippet-Styles" transform="translate(-931.000000, -742.000000)" fill="#000000">
            <g id="like" transform="translate(931.000000, 742.000000)">
                <g id="heart">
                    <g id="Layer_1">
                        <path d="M8,15 L1.61,8.57 C0.57,7.52 0,6.18 0,4.78 C0,3.44 0.53,2.17 1.49,1.21 C2.28,0.42 3.32,0 4.47,0 C5.68,0 6.95,0.47 8,1.28 C9.05,0.47 10.32,0 11.53,0 C12.69,0 13.72,0.42 14.52,1.22 C15.47,2.18 16,3.44 16,4.78 C16,6.18 15.43,7.52 14.39,8.57 L8,15 L8,15 Z M4.47,1.86 C3.8,1.86 3.23,2.09 2.79,2.54 C2.18,3.14 1.85,3.94 1.85,4.78 C1.85,5.68 2.23,6.56 2.92,7.25 L8,12.37 L13.08,7.25 C13.77,6.55 14.15,5.68 14.15,4.78 C14.15,3.94 13.81,3.14 13.21,2.53 C12.76,2.08 12.19,1.85 11.53,1.85 C10.56,1.85 9.46,2.35 8.66,3.16 L8,3.83 L7.35,3.17 C6.54,2.36 5.44,1.86 4.47,1.86 L4.47,1.86 Z" id="Shape"></path>
                    </g>
                </g>
            </g>
        </g>
    </g>
</svg>